<svg width="17" height="17" viewBox="0 0 17 17" fill="none" xmlns="http://www.w3.org/2000/svg">
<path d="M11.3528 1.945C8.75932 -0.648332 4.53821 -0.648332 1.9447 1.945C-0.648235 4.53889 -0.648235 8.75916 1.9447 11.3531C4.25429 13.6619 7.85134 13.9093 10.4432 12.1064C10.4977 12.3644 10.6225 12.6107 10.8232 12.8113L14.6002 16.5881C15.1506 17.1373 16.04 17.1373 16.5876 16.5881C17.1375 16.0383 17.1375 15.1489 16.5876 14.6008L12.8106 10.8229C12.6111 10.6239 12.3643 10.4985 12.1062 10.444C13.9103 7.85181 13.663 4.25555 11.3528 1.945ZM10.1604 10.1607C8.22409 12.0968 5.07287 12.0968 3.13716 10.1607C1.20202 8.22453 1.20202 5.07408 3.13716 3.13794C5.07287 1.20236 8.22409 1.20236 10.1604 3.13794C12.0966 5.07408 12.0966 8.22453 10.1604 10.1607Z" fill="white"/>
</svg>
